<?xml version="1.0" standalone="no"?>
<!DOCTYPE svg PUBLIC "-//W3C//DTD SVG 20010904//EN"
 "http://www.w3.org/TR/2001/REC-SVG-20010904/DTD/svg10.dtd">
<svg version="1.0" xmlns="http://www.w3.org/2000/svg"
 width="260.000000pt" height="260.000000pt" viewBox="0 0 260.000000 260.000000"
 preserveAspectRatio="xMidYMid meet">
<metadata>
Created by potrace 1.14, written by Peter Selinger 2001-2017
</metadata>
<g transform="translate(0.000000,260.000000) scale(0.100000,-0.100000)"
fill="#000000" stroke="none">
<path d="M1167 2486 c-64 -17 -116 -62 -150 -127 -25 -50 -27 -61 -25 -164 3
-106 4 -110 26 -113 21 -3 22 -1 22 90 0 141 27 206 103 248 46 26 130 30 172
7 83 -43 115 -115 115 -254 0 -92 1 -94 23 -91 21 3 22 6 22 118 0 98 -3 122
-22 161 -28 58 -90 109 -156 126 -61 15 -68 15 -130 -1z"/>
<path d="M825 2100 c-39 -15 -48 -39 -56 -143 -7 -99 -32 -693 -31 -751 1 -51
32 -70 121 -74 91 -5 74 -19 183 158 39 63 95 154 124 201 30 48 54 92 54 98
0 7 -25 11 -69 11 -65 0 -71 2 -88 28 -11 15 -18 33 -17 40 1 6 2 17 3 22 0 6
10 19 21 30 18 18 33 20 165 20 142 0 147 -1 170 -25 29 -28 31 -45 10 -86 -9
-16 -14 -33 -11 -38 3 -4 73 -9 156 -10 127 -2 151 0 156 13 3 9 1 116 -4 238
l-11 223 -31 28 c-26 23 -39 27 -92 27 -52 0 -64 -4 -84 -25 -13 -14 -32 -25
-43 -25 -11 0 -28 11 -39 25 -20 25 -22 25 -174 25 l-154 0 -26 -30 c-21 -25
-30 -28 -50 -22 -12 5 -27 19 -33 30 -8 19 -18 22 -70 21 -33 0 -69 -4 -80 -9z"/>
<path d="M1087 1692 c-15 -16 -15 -20 -1 -40 14 -20 24 -22 105 -22 49 0 89
-2 89 -5 0 -3 -62 -106 -137 -228 -150 -244 -183 -299 -183 -309 0 -4 7 -14
16 -22 11 -12 37 -16 97 -17 66 -1 76 -3 52 -10 -60 -18 -95 -65 -95 -125 0
-35 5 -47 31 -68 35 -30 58 -32 99 -11 44 23 70 62 70 107 0 49 -13 73 -48 92
-24 14 -4 15 216 16 148 0 251 4 263 10 28 15 24 49 -7 61 -16 5 -138 9 -296
9 -149 -1 -272 1 -275 4 -22 22 29 26 295 26 243 0 291 2 310 15 35 25 212
296 212 326 0 45 -24 49 -308 52 l-262 2 35 52 c40 60 41 64 17 86 -15 14 -42
17 -149 17 -113 0 -132 -2 -146 -18z m63 -751 c0 -10 -7 -24 -15 -31 -12 -10
-16 -9 -21 4 -3 9 -4 23 0 31 8 21 36 19 36 -4z"/>
<path d="M1366 1019 c-63 -49 -74 -124 -25 -170 36 -33 68 -37 107 -12 69 45
89 131 41 182 -26 28 -87 28 -123 0z m68 -68 c9 -14 -4 -41 -19 -41 -21 0 -28
19 -15 35 14 17 26 19 34 6z"/>
<path d="M1360 751 c-5 -11 -10 -45 -10 -75 0 -53 1 -56 24 -56 14 0 28 6 33
13 11 16 30 112 25 126 -6 19 -60 13 -72 -8z"/>
<path d="M303 730 c-31 -14 -43 -25 -43 -40 0 -30 23 -34 69 -11 55 29 112 27
148 -3 25 -22 28 -30 27 -84 -2 -84 -33 -123 -108 -137 -33 -7 -36 -5 -36 16
0 13 7 56 16 94 22 101 22 100 -7 103 -44 5 -60 -30 -77 -177 -6 -49 -5 -66 6
-77 28 -29 179 -9 215 28 40 41 59 83 64 137 7 70 -12 116 -60 149 -43 29
-151 30 -214 2z"/>
<path d="M1448 609 c-19 -14 -28 -30 -28 -49 0 -33 10 -44 60 -68 40 -19 46
-45 12 -50 -17 -3 -25 2 -29 17 -4 15 -13 21 -34 21 -24 0 -29 -4 -29 -23 0
-37 30 -57 86 -57 57 0 94 25 94 63 0 32 -11 45 -60 70 -24 12 -43 27 -42 32
2 17 45 18 54 1 5 -9 20 -16 33 -16 16 0 25 -6 25 -15 0 -8 5 -15 11 -15 8 0
10 -15 5 -47 -3 -27 -2 -54 3 -61 12 -20 75 -11 79 11 2 10 -3 17 -12 17 -11
0 -16 9 -16 28 0 32 9 46 33 55 20 8 23 33 3 44 -8 4 -15 17 -18 28 -3 18 -11
21 -48 16 -5 0 -10 -10 -10 -20 0 -10 -7 -21 -15 -25 -9 -3 -15 0 -15 9 0 8
-10 23 -22 35 -28 26 -84 26 -120 -1z"/>
<path d="M615 564 c-36 -39 -36 -114 1 -143 15 -12 39 -21 54 -21 32 0 76 32
85 60 8 26 25 16 25 -14 0 -41 49 -63 78 -34 9 9 15 9 24 0 15 -15 65 -16 74
-1 4 8 9 8 17 0 20 -20 47 -12 59 17 6 15 17 41 25 57 l14 30 -7 -34 c-9 -48
11 -81 51 -81 17 0 36 5 43 12 9 9 15 9 24 0 7 -7 21 -12 32 -12 16 0 17 -3 8
-12 -7 -7 -45 -15 -85 -18 -65 -5 -72 -7 -75 -27 -3 -21 1 -23 42 -23 l45 0
-6 -33 c-8 -54 37 -84 88 -57 10 6 28 29 39 50 20 39 21 40 76 40 52 0 55 1
52 23 -3 19 -10 22 -50 25 -54 3 -59 13 -23 46 14 13 25 33 25 45 0 23 -10 27
-26 11 -8 -8 -9 4 -3 37 13 80 12 85 -17 81 -21 -2 -29 -12 -41 -48 -23 -71
-37 -74 -29 -7 6 55 5 57 -18 57 -32 0 -43 -16 -51 -72 -4 -26 -14 -53 -22
-60 -14 -11 -15 -4 -8 60 l7 72 -29 0 c-16 0 -39 -7 -51 -16 -20 -14 -22 -14
-22 0 0 24 -47 20 -60 -5 -6 -11 -12 -35 -12 -52 -1 -33 -13 -57 -31 -57 -9 0
-6 37 9 103 6 25 4 27 -24 27 -26 0 -31 -5 -37 -30 -7 -33 -34 -90 -42 -90 -5
0 4 69 13 103 4 13 -1 17 -23 17 -24 0 -33 -7 -48 -37 -15 -32 -19 -35 -23
-18 -8 38 -33 55 -79 55 -35 0 -49 -6 -68 -26z m65 -42 c0 -10 5 -23 12 -30 8
-8 8 -15 -2 -27 -7 -8 -16 -15 -20 -15 -12 0 -20 43 -13 68 6 26 23 29 23 4z
m543 -222 c-6 -21 -21 -35 -29 -27 -6 6 18 47 27 47 4 0 5 -9 2 -20z"/>
<path d="M1754 559 c-23 -11 -54 -68 -54 -97 0 -10 7 -28 16 -40 20 -29 95
-31 126 -3 25 24 35 98 16 124 -16 21 -75 31 -104 16z m52 -54 c9 -23 -5 -65
-22 -65 -21 0 -29 27 -16 56 13 27 30 31 38 9z"/>
<path d="M1902 561 c-11 -8 -34 -139 -27 -151 4 -6 17 -10 30 -10 20 0 25 6
30 38 11 63 15 71 38 74 15 2 23 11 25 30 3 25 1 26 -42 26 -25 -1 -49 -4 -54
-7z"/>
<path d="M2019 539 c-36 -38 -40 -96 -9 -124 37 -33 137 -16 123 21 -4 12 -15
14 -44 9 -26 -4 -39 -3 -39 4 0 7 21 11 50 11 50 0 50 0 50 33 0 75 -78 103
-131 46z m71 -29 c0 -5 -7 -10 -15 -10 -8 0 -15 5 -15 10 0 6 7 10 15 10 8 0
15 -4 15 -10z"/>
<path d="M261 361 c-8 -5 -11 -16 -8 -25 6 -14 30 -16 177 -16 l171 0 -3 23
c-3 22 -6 22 -163 24 -88 2 -166 -1 -174 -6z"/>
<path d="M665 362 c-6 -4 -11 -14 -10 -22 0 -13 27 -15 173 -18 l172 -2 0 25
0 25 -162 0 c-90 0 -168 -4 -173 -8z"/>
<path d="M1467 364 c-4 -4 -7 -16 -7 -26 0 -17 12 -18 171 -18 l170 0 -3 23
c-3 22 -6 22 -164 25 -88 1 -163 -1 -167 -4z"/>
<path d="M1865 362 c-6 -4 -11 -14 -10 -22 0 -13 27 -15 173 -18 l173 -2 -3
22 c-3 23 -5 23 -163 25 -88 2 -165 0 -170 -5z"/>
<path d="M545 238 c-5 -16 -24 -100 -25 -110 0 -5 9 -8 20 -8 18 0 25 16 21
43 0 4 6 7 14 7 9 0 15 -9 15 -25 0 -16 6 -25 15 -25 9 0 15 9 15 22 l0 22 16
-22 c21 -31 62 -29 74 4 23 60 -7 92 -56 59 -25 -16 -25 -16 -22 11 4 36 -19
42 -33 10 -15 -33 -29 -33 -29 -1 0 26 -17 34 -25 13z m152 -84 c-3 -3 -12 -4
-19 -1 -8 3 -5 6 6 6 11 1 17 -2 13 -5z"/>
<path d="M943 228 c-6 -7 -10 -33 -9 -58 1 -39 4 -45 23 -48 21 -3 22 0 16 29
-4 24 -2 34 11 41 17 9 17 11 0 29 -20 22 -28 24 -41 7z"/>
<path d="M737 213 c-4 -3 -7 -26 -7 -50 0 -50 24 -61 33 -14 3 16 13 31 23 35
11 4 15 2 11 -6 -2 -7 -1 -23 4 -35 6 -17 16 -23 39 -23 36 0 42 26 8 33 -17
3 -14 5 10 6 34 1 39 10 22 42 -12 21 -50 25 -68 7 -9 -9 -12 -9 -12 0 0 13
-52 17 -63 5z"/>
<path d="M1007 202 c-20 -22 -22 -53 -5 -70 19 -19 55 -14 71 8 l14 21 6 -21
c4 -17 12 -21 39 -18 25 2 35 9 42 31 18 51 -26 86 -64 52 -18 -16 -20 -16
-35 -1 -22 21 -48 20 -68 -2z m39 -37 c1 -8 -2 -15 -7 -15 -5 0 -9 10 -9 22 0
23 12 17 16 -7z m94 4 c0 -11 -4 -18 -10 -14 -5 3 -7 12 -3 20 7 21 13 19 13
-6z"/>
<path d="M1232 207 c-6 -7 -10 -28 -9 -47 2 -31 6 -35 31 -38 16 -2 33 1 39 7
7 7 14 7 23 0 19 -15 69 -7 68 11 -1 9 6 22 14 30 14 12 15 10 9 -18 -6 -27
-4 -32 13 -32 15 0 20 7 20 29 0 17 6 31 16 35 24 9 24 9 24 -29 0 -30 3 -35
24 -35 19 0 28 8 38 37 l13 36 5 -34 c5 -31 8 -34 39 -34 42 0 53 22 14 28
-27 4 -27 4 5 6 25 1 32 5 32 21 0 28 -40 46 -69 31 -14 -8 -21 -8 -21 -1 0
19 -31 10 -40 -12 l-9 -23 0 23 c-1 20 -6 22 -51 22 -40 0 -50 -3 -50 -17 0
-15 -1 -15 -18 0 -22 20 -43 22 -60 5 -9 -9 -18 -9 -37 0 -33 15 -50 15 -63
-1z m78 -37 c0 -5 -2 -10 -4 -10 -3 0 -8 5 -11 10 -3 6 -1 10 4 10 6 0 11 -4
11 -10z m57 -16 c-3 -3 -12 -4 -19 -1 -8 3 -5 6 6 6 11 1 17 -2 13 -5z"/>
<path d="M1695 171 c4 -31 3 -51 -4 -56 -19 -11 -12 -26 11 -23 15 2 31 18 46
48 13 25 22 36 20 25 -1 -11 1 -26 5 -32 12 -19 64 -16 75 3 8 15 10 15 15 0
4 -10 18 -16 41 -16 40 0 41 1 51 58 6 37 5 42 -12 42 -14 0 -23 -11 -31 -37
l-11 -38 5 38 c4 32 2 37 -16 37 -12 0 -20 -7 -20 -17 0 -15 -2 -15 -17 0 -23
20 -100 18 -113 -3 -8 -12 -10 -12 -16 3 -3 9 -13 17 -21 17 -12 0 -14 -9 -8
-49z m121 -18 c-11 -11 -17 4 -9 23 7 18 8 18 11 1 2 -10 1 -21 -2 -24z"/>
</g>
</svg>
